<svg xmlns="http://www.w3.org/2000/svg" viewBox="0 0 256 256"><path d="M231.99 55.81q-.005-.223-.022-.444-.014-.18-.036-.358a7.862 7.862 0 00-.236-1.17 7.78 7.78 0 00-.393-1.093 7.973 7.973 0 00-.173-.36 7.708 7.708 0 00-1.106-1.637c-.044-.05-.081-.104-.127-.154-.038-.042-.08-.077-.12-.118a8.39 8.39 0 00-.3-.296 8.024 8.024 0 00-.283-.258 8.148 8.148 0 00-.3-.24 8.328 8.328 0 00-.326-.245c-.1-.07-.203-.134-.306-.199-.117-.073-.233-.147-.353-.214-.11-.062-.222-.117-.334-.173-.117-.059-.234-.118-.353-.17-.124-.055-.25-.102-.377-.15-.113-.044-.225-.088-.34-.125a7.985 7.985 0 00-.41-.12c-.113-.03-.225-.06-.34-.087a8.216 8.216 0 00-.414-.078 8.311 8.311 0 00-.364-.056 8.169 8.169 0 00-.398-.036 7.959 7.959 0 00-.403-.02c-.06-.001-.117-.009-.176-.009H32c-.055 0-.107.007-.162.008-.146.003-.29.011-.435.022a7.83 7.83 0 00-.368.034 8.325 8.325 0 00-.396.06c-.13.023-.258.045-.385.073a7.593 7.593 0 00-.367.095c-.13.035-.258.07-.385.111-.122.04-.242.087-.363.133-.119.046-.239.09-.355.142-.125.055-.248.117-.37.178-.108.054-.215.107-.32.165a7.977 7.977 0 00-.363.221c-.1.063-.2.126-.296.193a7.547 7.547 0 00-.332.249c-.1.077-.2.155-.295.237a7.373 7.373 0 00-.287.26 7.89 7.89 0 00-.298.295c-.04.04-.082.076-.12.118-.046.05-.083.103-.127.154a8.432 8.432 0 00-.498.63 7.64 7.64 0 00-.224.333 7.668 7.668 0 00-.703 1.387 7.4 7.4 0 00-.347 1.127 8.312 8.312 0 00-.136.783q-.022.178-.036.358-.017.222-.022.443c-.002.064-.01.127-.01.191v136a16.018 16.018 0 0016 16h176a16.018 16.018 0 0016-16V56c0-.064-.008-.127-.01-.19zM203.433 64L128 133.147 52.567 64zM216 192H40V74.187l82.594 75.71a8.002 8.002 0 0010.812 0l82.595-75.712L216.01 192z" fill="#e8c300"/></svg>